<svg width="920" height="504" viewBox="0 0 920 504" fill="none" xmlns="http://www.w3.org/2000/svg">
<path fill-rule="evenodd" clip-rule="evenodd" d="M230.173 146.912C215.365 135.945 194.045 129.824 166.215 128.548C186.641 126.508 204.641 121.917 220.216 114.775C235.79 107.634 247.79 98.5792 256.216 87.6118C264.897 76.3893 269.238 64.1466 269.238 50.8837C269.238 34.8152 262.344 22.4449 248.556 13.773C234.769 4.84606 213.577 0.382579 184.981 0.382579C174.768 0.382579 166.981 0.510106 161.619 0.765159L129.066 1.14774C103.789 1.14774 84.3841 0.765159 70.852 0L68.9371 7.65168C78.6393 7.90673 85.2777 9.18201 88.8522 11.4775C92.6821 13.773 94.597 17.3438 94.597 22.1899C94.597 26.2708 93.5757 32.3921 91.5331 40.5539L40.9793 230.316C38.426 240.008 35.7451 247.022 32.9366 251.358C30.3834 255.694 26.8089 258.627 22.2131 260.157C17.6173 261.688 10.7235 262.708 1.53194 263.218L0 270.87C13.7874 270.104 33.5749 269.722 59.3625 269.722C73.4052 269.722 88.3416 269.977 104.172 270.487L126.385 270.87C150.896 270.87 172.598 267.681 191.492 261.305C210.641 254.929 225.577 245.619 236.301 233.376C247.025 220.879 252.386 205.83 252.386 188.231C252.386 171.653 244.982 157.88 230.173 146.912ZM162.768 13.0079C166.343 9.43707 171.96 7.65168 179.619 7.65168C190.343 7.65168 197.875 10.8399 202.215 17.2163C206.811 23.5927 209.109 32.7747 209.109 44.7623C209.109 59.0455 206.428 72.5635 201.066 85.3163C195.96 97.814 188.3 107.889 178.087 115.54C168.13 123.192 156.257 127.018 142.47 127.018H129.066L153.576 34.8152C156.385 23.8477 159.449 16.5786 162.768 13.0079ZM155.874 251.358C145.151 258.499 132.257 262.07 117.193 262.07C110.555 262.07 105.831 260.922 103.023 258.627C100.214 256.076 98.8098 252.378 98.8098 247.532C98.8098 244.726 99.8311 238.988 101.874 230.316L127.534 133.522H144.385C159.704 133.522 170.811 137.858 177.704 146.53C184.853 155.202 188.428 166.807 188.428 181.345C188.428 196.393 185.619 210.039 180.002 222.281C174.641 234.524 166.598 244.216 155.874 251.358ZM483.334 85.826C519.59 85.826 545.505 85.4434 561.08 84.6783C555.207 100.492 550.228 116.05 546.143 131.354C541.803 147.422 539.122 158.645 538.101 165.021H529.292C530.313 157.114 530.824 149.335 530.824 141.683C530.824 124.084 527.249 111.714 520.1 104.573C513.207 97.176 501.717 93.4777 485.632 93.4777H476.823C468.398 93.4777 462.015 94.2429 457.674 95.7732C453.589 97.0485 450.27 99.8541 447.717 104.19C445.163 108.526 442.738 115.54 440.44 125.232L415.929 217.052H433.546C445.802 217.052 456.142 212.844 464.568 204.427C472.993 196.01 480.142 184.915 486.015 171.142H494.441C490.611 183.13 485.887 199.709 480.27 220.878C477.972 230.57 474.015 249.445 468.398 277.501H459.972C460.738 260.157 458.951 247.022 454.61 238.095C450.525 229.168 442.099 224.704 429.333 224.704H414.014L389.886 314.994C387.843 322.646 386.822 328.257 386.822 331.828C386.822 337.949 389.12 342.03 393.716 344.07C398.567 346.111 407.248 347.386 419.759 347.896L418.227 355.548C402.652 354.783 379.928 354.4 350.056 354.4C321.97 354.4 301.161 354.783 287.629 355.548L289.544 347.896C298.736 347.386 305.502 346.366 309.842 344.836C314.438 343.305 318.14 340.372 320.949 336.036C323.757 331.7 326.438 324.686 328.992 314.994L379.545 125.232C381.588 116.56 382.609 110.439 382.609 106.868C382.609 101.257 380.694 97.5586 376.865 95.7732C373.29 93.9878 366.652 92.8401 356.949 92.33L358.864 84.6783C386.694 85.4434 428.184 85.826 483.334 85.826ZM890.893 232.365C902.383 232.365 912.085 231.983 920 231.217L918.085 238.869C909.149 241.42 901.234 245.501 894.34 251.112C887.446 256.468 880.297 265.905 872.893 279.423L752.253 504H732.338L708.593 333.367L605.57 504H585.655L555.4 263.354C554.378 254.683 551.953 248.561 548.123 244.99C544.293 241.165 539.953 239.124 535.101 238.869L537.016 231.217C549.527 231.983 567.4 232.365 590.634 232.365C612.336 232.365 628.932 231.983 640.422 231.217L638.507 238.869C631.103 239.379 625.869 241.165 622.805 244.225C619.741 247.286 618.209 253.025 618.209 261.442C618.209 265.522 618.337 268.711 618.592 271.006L636.975 437.048L707.061 321.89L699.018 263.354C697.997 254.938 695.955 248.816 692.891 244.99C689.827 241.165 686.38 239.124 682.55 238.869L684.465 231.217C696.465 231.983 713.061 232.365 734.253 232.365C760.806 232.365 780.722 231.983 793.998 231.217L792.083 238.869C780.594 239.379 772.551 241.165 767.955 244.225C763.615 247.031 761.445 252.515 761.445 260.676C761.445 262.462 761.7 265.905 762.211 271.006L782.509 430.926L861.404 285.927C867.787 273.939 870.978 264.502 870.978 257.616C870.978 251.239 868.297 246.648 862.935 243.843C857.829 241.037 849.786 239.379 838.807 238.869L840.722 231.217C851.191 231.983 867.914 232.365 890.893 232.365Z" fill="#7C6AAD"/>
</svg>
